<svg width="302" height="104" viewBox="0 0 302 104" fill="none" xmlns="http://www.w3.org/2000/svg">
<path d="M12.5 96.9258V24.4258L0.5 38.9258V102.926H55.5V96.9258H12.5Z" fill="#32A2F2" stroke="#31A2F2"/>
<path d="M32.5 56.4258V1.42578L20.5 16.4258V91.4258H32.5V61.4258H43V91.4258H55.5V37.9258L43 27.4258V56.4258H32.5Z" fill="white" stroke="white"/>
<path d="M70.7 72.5758H76.8V74.4258H68.425V57.0008H70.7V72.5758ZM82.941 57.0008V68.0258C82.941 69.5758 83.316 70.7258 84.066 71.4758C84.8327 72.2258 85.891 72.6008 87.241 72.6008C88.5743 72.6008 89.616 72.2258 90.366 71.4758C91.1327 70.7258 91.516 69.5758 91.516 68.0258V57.0008H93.791V68.0008C93.791 69.4508 93.4993 70.6758 92.916 71.6758C92.3327 72.6591 91.541 73.3924 90.541 73.8758C89.5577 74.3591 88.4493 74.6008 87.216 74.6008C85.9827 74.6008 84.866 74.3591 83.866 73.8758C82.8827 73.3924 82.0993 72.6591 81.516 71.6758C80.9493 70.6758 80.666 69.4508 80.666 68.0008V57.0008H82.941ZM98.2361 65.7008C98.2361 64.0008 98.6195 62.4758 99.3861 61.1258C100.153 59.7591 101.194 58.6924 102.511 57.9258C103.844 57.1591 105.319 56.7758 106.936 56.7758C108.836 56.7758 110.494 57.2341 111.911 58.1508C113.328 59.0674 114.361 60.3674 115.011 62.0508H112.286C111.803 61.0008 111.103 60.1924 110.186 59.6258C109.286 59.0591 108.203 58.7758 106.936 58.7758C105.719 58.7758 104.628 59.0591 103.661 59.6258C102.694 60.1924 101.936 61.0008 101.386 62.0508C100.836 63.0841 100.561 64.3008 100.561 65.7008C100.561 67.0841 100.836 68.3008 101.386 69.3508C101.936 70.3841 102.694 71.1841 103.661 71.7508C104.628 72.3174 105.719 72.6008 106.936 72.6008C108.203 72.6008 109.286 72.3258 110.186 71.7758C111.103 71.2091 111.803 70.4008 112.286 69.3508H115.011C114.361 71.0174 113.328 72.3091 111.911 73.2258C110.494 74.1258 108.836 74.5758 106.936 74.5758C105.319 74.5758 103.844 74.2008 102.511 73.4508C101.194 72.6841 100.153 71.6258 99.3861 70.2758C98.6195 68.9258 98.2361 67.4008 98.2361 65.7008ZM129.348 74.4258L122.173 66.4758V74.4258H119.898V57.0008H122.173V65.0758L129.373 57.0008H132.248L124.348 65.7258L132.323 74.4258H129.348ZM150.063 74.4258H147.788L138.638 60.5508V74.4258H136.363V56.9758H138.638L147.788 70.8258V56.9758H150.063V74.4258ZM163.342 74.6008C161.725 74.6008 160.25 74.2258 158.917 73.4758C157.583 72.7091 156.525 71.6508 155.742 70.3008C154.975 68.9341 154.592 67.4008 154.592 65.7008C154.592 64.0008 154.975 62.4758 155.742 61.1258C156.525 59.7591 157.583 58.7008 158.917 57.9508C160.25 57.1841 161.725 56.8008 163.342 56.8008C164.975 56.8008 166.458 57.1841 167.792 57.9508C169.125 58.7008 170.175 59.7508 170.942 61.1008C171.708 62.4508 172.092 63.9841 172.092 65.7008C172.092 67.4174 171.708 68.9508 170.942 70.3008C170.175 71.6508 169.125 72.7091 167.792 73.4758C166.458 74.2258 164.975 74.6008 163.342 74.6008ZM163.342 72.6258C164.558 72.6258 165.65 72.3424 166.617 71.7758C167.6 71.2091 168.367 70.4008 168.917 69.3508C169.483 68.3008 169.767 67.0841 169.767 65.7008C169.767 64.3008 169.483 63.0841 168.917 62.0508C168.367 61.0008 167.608 60.1924 166.642 59.6258C165.675 59.0591 164.575 58.7758 163.342 58.7758C162.108 58.7758 161.008 59.0591 160.042 59.6258C159.075 60.1924 158.308 61.0008 157.742 62.0508C157.192 63.0841 156.917 64.3008 156.917 65.7008C156.917 67.0841 157.192 68.3008 157.742 69.3508C158.308 70.4008 159.075 71.2091 160.042 71.7758C161.025 72.3424 162.125 72.6258 163.342 72.6258ZM198.495 57.0008L193.445 74.4258H190.895L186.845 60.4008L182.645 74.4258L180.12 74.4508L175.245 57.0008H177.67L181.47 71.7758L185.67 57.0008H188.22L192.22 71.7258L196.045 57.0008H198.495Z" fill="#3AC0EB"/>
<path d="M224.075 57.0008V74.4258H221.8V66.5258H212.925V74.4258H210.65V57.0008H212.925V64.6508H221.8V57.0008H224.075ZM237.359 74.6008C235.743 74.6008 234.268 74.2258 232.934 73.4758C231.601 72.7091 230.543 71.6508 229.759 70.3008C228.993 68.9341 228.609 67.4008 228.609 65.7008C228.609 64.0008 228.993 62.4758 229.759 61.1258C230.543 59.7591 231.601 58.7008 232.934 57.9508C234.268 57.1841 235.743 56.8008 237.359 56.8008C238.993 56.8008 240.476 57.1841 241.809 57.9508C243.143 58.7008 244.193 59.7508 244.959 61.1008C245.726 62.4508 246.109 63.9841 246.109 65.7008C246.109 67.4174 245.726 68.9508 244.959 70.3008C244.193 71.6508 243.143 72.7091 241.809 73.4758C240.476 74.2258 238.993 74.6008 237.359 74.6008ZM237.359 72.6258C238.576 72.6258 239.668 72.3424 240.634 71.7758C241.618 71.2091 242.384 70.4008 242.934 69.3508C243.501 68.3008 243.784 67.0841 243.784 65.7008C243.784 64.3008 243.501 63.0841 242.934 62.0508C242.384 61.0008 241.626 60.1924 240.659 59.6258C239.693 59.0591 238.593 58.7758 237.359 58.7758C236.126 58.7758 235.026 59.0591 234.059 59.6258C233.093 60.1924 232.326 61.0008 231.759 62.0508C231.209 63.0841 230.934 64.3008 230.934 65.7008C230.934 67.0841 231.209 68.3008 231.759 69.3508C232.326 70.4008 233.093 71.2091 234.059 71.7758C235.043 72.3424 236.143 72.6258 237.359 72.6258ZM268.288 57.1258V74.4258H266.013V61.5258L260.263 74.4258H258.663L252.888 61.5008V74.4258H250.613V57.1258H253.063L259.463 71.4258L265.863 57.1258H268.288ZM275.921 58.8508V64.6758H282.271V66.5508H275.921V72.5508H283.021V74.4258H273.646V56.9758H283.021V58.8508H275.921ZM293.488 74.6008C292.338 74.6008 291.305 74.4008 290.388 74.0008C289.488 73.5841 288.78 73.0174 288.263 72.3008C287.746 71.5674 287.48 70.7258 287.463 69.7758H289.888C289.971 70.5924 290.305 71.2841 290.888 71.8508C291.488 72.4008 292.355 72.6758 293.488 72.6758C294.571 72.6758 295.421 72.4091 296.038 71.8758C296.671 71.3258 296.988 70.6258 296.988 69.7758C296.988 69.1091 296.805 68.5674 296.438 68.1508C296.071 67.7341 295.613 67.4174 295.063 67.2008C294.513 66.9841 293.771 66.7508 292.838 66.5008C291.688 66.2008 290.763 65.9008 290.063 65.6008C289.38 65.3008 288.788 64.8341 288.288 64.2008C287.805 63.5508 287.563 62.6841 287.563 61.6008C287.563 60.6508 287.805 59.8091 288.288 59.0758C288.771 58.3424 289.446 57.7758 290.313 57.3758C291.196 56.9758 292.205 56.7758 293.338 56.7758C294.971 56.7758 296.305 57.1841 297.338 58.0008C298.388 58.8174 298.98 59.9008 299.113 61.2508H296.613C296.53 60.5841 296.18 60.0008 295.563 59.5008C294.946 58.9841 294.13 58.7258 293.113 58.7258C292.163 58.7258 291.388 58.9758 290.788 59.4758C290.188 59.9591 289.888 60.6424 289.888 61.5258C289.888 62.1591 290.063 62.6758 290.413 63.0758C290.78 63.4758 291.221 63.7841 291.738 64.0008C292.271 64.2008 293.013 64.4341 293.963 64.7008C295.113 65.0174 296.038 65.3341 296.738 65.6508C297.438 65.9508 298.038 66.4258 298.538 67.0758C299.038 67.7091 299.288 68.5758 299.288 69.6758C299.288 70.5258 299.063 71.3258 298.613 72.0758C298.163 72.8258 297.496 73.4341 296.613 73.9008C295.73 74.3674 294.688 74.6008 293.488 74.6008Z" fill="white"/>
</svg>
